<svg viewBox="0 0 900 240" xmlns="http://www.w3.org/2000/svg" role="img" aria-label="Naadhim Fahly — Full Stack Engineer">
  <defs>
    <pattern id="grid" width="28" height="28" patternUnits="userSpaceOnUse">
      <circle cx="1" cy="1" r="1" fill="#30363D" opacity="0.55"/>
    </pattern>
  </defs>

  <!-- base -->
  <rect x="0" y="0" width="900" height="240" fill="#0D1117"/>
  <rect x="0" y="0" width="900" height="240" fill="url(#grid)"/>

  <!-- outer frame -->
  <rect x="1" y="1" width="898" height="238" fill="none" stroke="#30363D" stroke-width="1"/>

  <!-- corner brackets -->
  <path d="M 24 24 L 24 44 M 24 24 L 44 24" stroke="#58A6FF" stroke-width="1.5" fill="none"/>
  <path d="M 876 216 L 876 196 M 876 216 L 856 216" stroke="#58A6FF" stroke-width="1.5" fill="none"/>

  <!-- eyebrow index -->
  <text x="32" y="44" font-family="'JetBrains Mono','Courier New',monospace" font-size="11" letter-spacing="2" fill="#8B949E">N.01 — DEVELOPER_PROFILE</text>
  <circle cx="860" cy="40" r="3" fill="#58A6FF"/>
  <text x="850" y="44" text-anchor="end" font-family="'JetBrains Mono','Courier New',monospace" font-size="11" letter-spacing="1.5" fill="#8B949E">SIDOARJO, ID</text>

  <!-- name -->
  <text x="32" y="118" font-family="'JetBrains Mono','Courier New',monospace" font-size="46" font-weight="700" letter-spacing="1" fill="#F0F6FC">NAADHIM FAHLY</text>

  <!-- role line -->
  <text x="32" y="148" font-family="'JetBrains Mono','Courier New',monospace" font-size="15" letter-spacing="3" fill="#58A6FF">FULL STACK ENGINEER</text>
  <text x="292" y="148" font-family="'JetBrains Mono','Courier New',monospace" font-size="15" letter-spacing="1" fill="#8B949E">/ NETWORK ENGINEERING STUDENT</text>

  <!-- rule -->
  <line x1="32" y1="168" x2="868" y2="168" stroke="#30363D" stroke-width="1"/>

  <!-- tagline -->
  <text x="32" y="196" font-family="'JetBrains Mono','Courier New',monospace" font-size="13" fill="#8B949E">Building useful things, learning continuously, and turning ideas into software.</text>

  <!-- status pill -->
  <rect x="700" y="184" width="168" height="26" rx="13" fill="none" stroke="#30363D" stroke-width="1"/>
  <circle cx="716" cy="197" r="4" fill="#3FB950"/>
  <text x="730" y="201" font-family="'JetBrains Mono','Courier New',monospace" font-size="11" letter-spacing="1" fill="#F0F6FC">OPEN FOR COLLAB</text>
</svg>
